<svg width="23" height="23" viewBox="0 0 23 23" fill="none" xmlns="http://www.w3.org/2000/svg">
<g clip-path="url(#clip0)">
<path d="M19.2861 5.67662H15.567V4.46598C15.567 2.00342 13.5637 0 11.1011 0C8.63846 0 6.63518 2.00342 6.63518 4.46598V5.67662H3.43082C3.16062 5.67662 2.94145 5.8956 2.94145 6.16599L0.190918 22.5105C0.190918 22.781 0.409895 23 0.680537 23H22.32C22.5905 23 22.8097 22.781 22.8097 22.5105L19.7756 6.16599C19.7756 5.89555 19.5565 5.67662 19.2861 5.67662ZM7.61374 4.46598C7.61374 2.54305 9.17828 0.978801 11.1008 0.978801C13.0237 0.978801 14.5882 2.54334 14.5882 4.46598V5.67662H7.61374V4.46598ZM21.8309 22.0212H1.16972L3.91991 6.65518H6.63475V8.81028C6.39863 8.96834 6.24339 9.23709 6.24339 9.5424C6.24339 10.0288 6.63733 10.4233 7.12412 10.4233C7.61033 10.4233 8.005 10.0291 8.005 9.5424C8.005 9.23684 7.84932 8.96834 7.6133 8.81028V6.65518H14.5884V8.81028C14.3523 8.96834 14.1969 9.23709 14.1969 9.5424C14.1969 10.0288 14.591 10.4233 15.0778 10.4233C15.5641 10.4233 15.9586 10.0291 15.9586 9.5424C15.9586 9.23684 15.8027 8.96834 15.5668 8.81028V6.65518H18.7966L21.8309 22.0212Z" fill="#333333"/>
</g>
<defs>
<clipPath id="clip0">
<rect width="23" height="23" fill="white"/>
</clipPath>
</defs>
</svg>
