<svg width="22" height="22" viewBox="0 0 22 22" fill="none" xmlns="http://www.w3.org/2000/svg">
<g clip-path="url(#clip0)">
<path d="M18.4476 5.42981H14.8902V4.27181C14.8902 1.91632 12.974 0 10.6184 0C8.26287 0 6.3467 1.91632 6.3467 4.27181V5.42981H3.28166C3.0232 5.42981 2.81356 5.63927 2.81356 5.89791L0.182617 21.5318C0.182617 21.7905 0.392074 22 0.650948 22H21.3496C21.6083 22 21.818 21.7905 21.818 21.5318L18.9158 5.89791C18.9158 5.63922 18.7063 5.42981 18.4476 5.42981ZM7.28271 4.27181C7.28271 2.43248 8.77922 0.936245 10.6182 0.936245C12.4575 0.936245 13.9539 2.43276 13.9539 4.27181V5.42981H7.28271V4.27181ZM20.8818 21.0638H1.11886L3.74948 6.36582H6.34628V8.42723C6.12043 8.57841 5.97194 8.83547 5.97194 9.12751C5.97194 9.59272 6.34875 9.97009 6.81438 9.97009C7.27945 9.97009 7.65695 9.59305 7.65695 9.12751C7.65695 8.83524 7.50805 8.57841 7.28229 8.42723V6.36582H13.9542V8.42723C13.7283 8.57841 13.5796 8.83547 13.5796 9.12751C13.5796 9.59272 13.9566 9.97009 14.4222 9.97009C14.8874 9.97009 15.2647 9.59305 15.2647 9.12751C15.2647 8.83524 15.1156 8.57841 14.89 8.42723V6.36582H17.9794L20.8818 21.0638Z" fill="white"/>
</g>
<defs>
<clipPath id="clip0">
<rect width="22" height="22" fill="white"/>
</clipPath>
</defs>
</svg>
