<svg width="20" height="20" viewBox="0 0 20 20" fill="none" xmlns="http://www.w3.org/2000/svg">
<g clip-path="url(#clip0)">
<path d="M18.2427 2.51419C17.071 1.3425 15.5357 0.756836 14 0.756836C12.5633 0.756836 11.1383 1.29051 9.99999 2.31618C8.86131 1.29051 7.43665 0.756836 5.99996 0.756836C4.46428 0.756836 2.92892 1.3425 1.75727 2.51419C-0.585757 4.85722 -0.585757 8.65623 1.75727 10.9996L9.99999 19.2423L18.2427 10.9996C20.5857 8.65627 20.5857 4.85757 18.2427 2.51419ZM17.536 10.2923L9.99999 17.828L2.46427 10.2926C0.514916 8.34295 0.514916 5.17089 2.46427 3.22154C3.40861 2.2772 4.66428 1.7572 5.99996 1.7572C7.21895 1.7572 8.35931 2.20888 9.26932 3.00287L9.99999 3.68588L10.731 3.00256C11.641 2.20888 12.7814 1.75688 14.0004 1.75688C15.336 1.75688 16.5914 2.27689 17.5361 3.22123C19.4857 5.17054 19.4854 8.34291 17.536 10.2923Z" fill="white"/>
</g>
<defs>
<clipPath id="clip0">
<rect width="20" height="20" fill="white"/>
</clipPath>
</defs>
</svg>
