<svg width="35" height="35" viewBox="0 0 35 35" fill="none" xmlns="http://www.w3.org/2000/svg">
<circle cx="17.5" cy="17.5" r="17.5" fill="#EAEAEA"/>
<path d="M24.2821 12.4722C23.3006 11.4906 22.0144 11 20.728 11C19.5244 11 18.3307 11.4471 17.3771 12.3063C16.4232 11.4471 15.2298 11 14.0262 11C12.7398 11 11.4536 11.4906 10.4721 12.4722C8.50931 14.4349 8.50931 17.6174 10.4721 19.5805L17.3771 26.4855L24.2821 19.5805C26.2449 17.6174 26.2449 14.4352 24.2821 12.4722ZM23.6901 18.9879L17.3771 25.3007L11.0643 18.9882C9.43135 17.355 9.43135 14.6977 11.0643 13.0647C11.8554 12.2736 12.9073 11.838 14.0262 11.838C15.0474 11.838 16.0027 12.2164 16.765 12.8815L17.3771 13.4537L17.9895 12.8813C18.7518 12.2164 19.7071 11.8377 20.7283 11.8377C21.8472 11.8377 22.8988 12.2734 23.6901 13.0644C25.3234 14.6974 25.3231 17.3549 23.6901 18.9879Z" fill="#333333"/>
</svg>
