<svg width="250" height="91" viewBox="0 0 250 91" fill="none" xmlns="http://www.w3.org/2000/svg">
<path fill-rule="evenodd" clip-rule="evenodd" d="M10.1073 48.0741L17.3478 33.5563L19.9941 51.3819H17.3478L15.6204 39.5839L9.40901 52.117L2.8668 39.5839L1.13938 51.3819H0L2.60954 33.5931L10.1073 48.0741ZM151.941 0C164.437 0 175.757 5.07203 183.953 13.2681C188.731 18.0462 192.443 23.89 194.722 30.4322H193.583C191.378 24.2208 187.776 18.6342 183.181 14.04C175.169 6.02762 164.143 1.10262 151.941 1.10262C139.738 1.10262 128.675 6.06437 120.7 14.04C116.106 18.6342 112.54 24.2208 110.298 30.4322H109.159C111.438 23.9268 115.15 18.0462 119.928 13.2681C128.124 5.07203 139.444 0 151.941 0ZM191.157 67.8844C189.172 71.3393 186.747 74.5001 183.953 77.2934C175.757 85.4895 164.437 90.5616 151.941 90.5616C139.444 90.5616 128.124 85.4895 119.928 77.2934C117.135 74.5001 114.709 71.3393 112.724 67.8844H113.974C115.848 71.0453 118.127 73.9488 120.7 76.5216C128.712 84.5339 139.738 89.459 151.941 89.459C164.143 89.459 175.206 84.4972 183.181 76.5216C185.754 73.9488 188.033 71.0453 189.907 67.8844H191.157ZM174.03 35.7248L172.045 37.5257C172.633 38.224 173.111 39.0326 173.442 39.9147C173.809 40.8703 174.03 41.9362 174.03 43.0388C174.03 45.5013 173.074 47.6698 171.494 49.1767C169.913 50.7571 167.671 51.676 165.246 51.676C163.996 51.676 162.783 51.4187 161.717 50.9776C160.725 50.5733 159.843 49.9853 159.071 49.2502L156.608 51.4922L155.837 50.6468L158.299 48.4049C157.748 47.7065 157.307 46.9347 157.013 46.0894C156.682 45.1338 156.498 44.1414 156.498 43.0388C156.498 40.613 157.454 38.4446 159.034 36.9009C160.615 35.3205 162.82 34.4016 165.282 34.4016C166.495 34.4016 167.635 34.6222 168.7 35.0632C169.656 35.4675 170.538 36.0188 171.31 36.7172L173.589 34.6589L174.36 35.5043L174.03 35.7248ZM170.465 38.9224L160.504 47.9271C161.019 48.7357 161.68 49.3605 162.415 49.8015C163.224 50.2793 164.18 50.5366 165.246 50.5366C167.046 50.5366 168.553 49.7648 169.582 48.4784C170.648 47.1553 171.273 45.244 171.273 43.0021C171.273 42.12 171.163 41.3114 171.016 40.5395C170.869 39.9882 170.685 39.4369 170.465 38.9224ZM159.916 46.9347L169.84 37.9667C169.325 37.2317 168.7 36.6436 167.965 36.2026C167.157 35.7615 166.238 35.5043 165.209 35.5043C163.408 35.5043 161.901 36.2761 160.872 37.5625C159.806 38.8856 159.181 40.7968 159.181 43.0388C159.181 43.8841 159.255 44.656 159.438 45.3911C159.549 45.9056 159.732 46.4202 159.916 46.9347ZM76.1908 28.7783C76.5951 28.7783 76.9627 28.9253 77.2199 29.2193C77.4772 29.4766 77.661 29.8441 77.661 30.2484C77.661 30.6527 77.514 31.0203 77.2199 31.2776C76.9627 31.5348 76.5951 31.7186 76.1908 31.7186C75.7865 31.7186 75.419 31.5716 75.1617 31.2776C74.9045 31.0203 74.7207 30.6527 74.7207 30.2484C74.7207 29.8441 74.8677 29.4766 75.1617 29.2193C75.419 28.9253 75.7865 28.7783 76.1908 28.7783ZM80.3808 28.7783C80.7851 28.7783 81.1526 28.9253 81.4099 29.2193C81.6672 29.4766 81.8509 29.8441 81.8509 30.2484C81.8509 30.6527 81.7039 31.0203 81.4099 31.2776C81.1526 31.5348 80.7851 31.7186 80.3808 31.7186C79.9765 31.7186 79.6089 31.5716 79.3516 31.2776C79.0944 31.0203 78.9106 30.6527 78.9106 30.2484C78.9106 29.8441 79.0576 29.4766 79.3516 29.2193C79.6457 28.9253 80.0132 28.7783 80.3808 28.7783ZM42.6345 51.3819H40.4661L38.5181 46.4201H32.3802L30.4322 51.3819H29.2193L36.2026 33.6298L43.1858 51.3819H42.6345ZM38.1138 45.2808L35.4675 38.5916L32.8212 45.2808H38.1138ZM55.3881 48.4416C56.4907 49.7647 57.9977 50.5734 59.6883 50.5734C60.6439 50.5734 61.4158 50.4631 62.0773 50.3161C62.6654 50.1691 63.1432 49.9485 63.621 49.6912V42.4507H66.157V49.728L66.01 49.8383C65.2014 50.4263 64.2458 50.8674 63.1432 51.1982C62.1141 51.4922 60.9747 51.6392 59.6883 51.6392C57.2258 51.6392 55.0206 50.6836 53.4402 49.1399C51.8598 47.5963 50.9041 45.4278 50.9041 43.0021C50.9041 38.1138 54.8368 34.3649 59.6883 34.3649C60.6807 34.3649 61.673 34.4752 62.5551 34.7324C63.5107 34.953 64.3561 35.3205 65.0912 35.7248L65.2749 35.835V37.7462L64.6133 37.1582C63.9885 36.6069 63.2534 36.2026 62.4081 35.9085C61.526 35.6145 60.6072 35.4675 59.6516 35.4675C57.9609 35.4675 56.4172 36.2393 55.3514 37.5992C54.2855 38.9223 53.6239 40.7968 53.6239 43.0021C53.6607 45.244 54.3223 47.1185 55.3881 48.4416ZM79.1311 51.3819H76.9626V34.6957H79.4987V51.3819H79.1311ZM102.837 51.3819H100.669L98.721 46.4201H92.5831L90.6351 51.3819H89.4222L96.4055 33.6298L103.389 51.3819H102.837ZM98.3167 45.2808L95.6704 38.5916L93.0241 45.2808H98.3167ZM117.759 34.4751C119.524 34.4751 120.92 35.1735 120.92 35.1735L121.141 35.2837V37.0479L120.516 36.5334C120.516 36.5334 119.34 35.5777 117.723 35.5777C116.914 35.5777 116.216 35.7983 115.738 36.2026C115.297 36.5701 115.003 37.0847 115.003 37.7095C115.003 38.9591 115.995 39.6574 117.943 41.0173L118.09 41.1276C120.626 42.8551 122.758 44.3252 122.758 46.9715C122.758 48.4416 122.133 49.5075 121.214 50.2426C120.075 51.1614 118.495 51.5289 117.135 51.5289C114.378 51.5289 112.577 50.022 112.577 50.022L112.43 49.9118V47.9638L113.092 48.6622C113.092 48.6622 114.746 50.4263 117.208 50.4263C118.164 50.4263 118.972 50.1691 119.524 49.6545C120.075 49.1767 120.369 48.5151 120.369 47.7065C120.369 47.0082 120.148 46.4569 119.671 45.8321C119.156 45.2073 118.348 44.509 117.208 43.7004C114.635 41.8627 112.798 40.5763 112.798 38.3711C112.798 37.1214 113.349 36.2026 114.194 35.541C115.187 34.8427 116.473 34.4751 117.759 34.4751ZM144.149 34.6957H146.317V51.3819H143.745V43.4063H135.401V51.3819H132.829V34.6957H135.401V42.3037H143.745V34.6957H144.149ZM192.848 42.8183C191.745 43.6636 190.201 44.0679 188.548 44.0679H186.71V51.3819H184.137V34.6957H188.511C190.165 34.6957 191.708 35.0999 192.811 35.9453C193.803 36.7171 194.428 37.8565 194.428 39.3634C194.465 40.9071 193.84 42.0465 192.848 42.8183ZM187.959 35.7983H186.71V42.9653H187.959C189.356 42.9653 190.312 42.6713 190.9 42.0832C191.488 41.4951 191.782 40.613 191.782 39.4002C191.782 38.1873 191.525 37.3052 190.9 36.7172C190.312 36.0923 189.356 35.7983 187.959 35.7983ZM204.535 51.1614C204.278 50.9041 204.131 50.5734 204.131 50.1691C204.131 49.7648 204.278 49.434 204.535 49.1767C204.793 48.9194 205.124 48.7724 205.528 48.7724C205.932 48.7724 206.263 48.9194 206.52 49.1767C206.777 49.434 206.924 49.7648 206.924 50.1691C206.924 50.5366 206.777 50.9041 206.52 51.1614C206.263 51.4187 205.932 51.5657 205.528 51.5657C205.124 51.5657 204.793 51.4187 204.535 51.1614ZM226.22 42.8183C225.118 43.6636 223.574 44.0679 221.92 44.0679H220.781L229.712 51.3819H227.984L219.935 44.803V51.3819H217.363V34.6957H221.92C223.574 34.6957 225.118 35.0999 226.22 35.9453C227.213 36.7171 227.837 37.8565 227.837 39.3634C227.837 40.9071 227.213 42.0465 226.22 42.8183ZM219.899 35.7983V42.9653H221.332C222.692 42.9653 223.684 42.6713 224.272 42.0832C224.86 41.4951 225.154 40.613 225.154 39.4002C225.154 38.1873 224.897 37.3052 224.272 36.7172C223.684 36.1291 222.729 35.835 221.332 35.835H219.899V35.7983ZM249.265 34.6957H250V44.5457C250 45.6483 249.926 46.6407 249.706 47.5596C249.449 48.4784 249.044 49.3237 248.346 50.0955C247.868 50.5733 247.317 50.9777 246.582 51.2717C245.92 51.529 245.185 51.676 244.266 51.676C243.458 51.676 242.612 51.5657 241.804 51.3084C241.106 51.0512 240.444 50.6836 239.893 50.1691C239.084 49.3972 238.606 48.5519 238.312 47.4493C238.018 46.3834 237.945 45.1338 237.945 43.5534V34.7692H240.517V44.0311C240.517 45.5013 240.554 46.5672 240.665 47.4125C240.775 48.2211 240.995 48.7724 241.326 49.287C241.62 49.728 242.024 50.0588 242.502 50.2793C242.98 50.4998 243.568 50.6101 244.266 50.6101C245.001 50.6101 245.59 50.4999 246.141 50.3161C246.692 50.0956 247.17 49.8015 247.538 49.434C248.126 48.8459 248.456 48.1108 248.64 47.3022C248.861 46.4569 248.897 45.5381 248.897 44.6192V34.8059H249.265V34.6957Z" fill="black"/>
<path fill-rule="evenodd" clip-rule="evenodd" d="M13.2682 64.0993C12.6434 64.0993 12.0553 63.9522 11.5775 63.695C11.0629 63.4377 10.6586 63.0334 10.4014 62.5556C10.1073 62.0778 9.96033 61.5265 9.96033 60.9384C9.96033 60.3504 10.1073 59.7991 10.4014 59.3213C10.6954 58.8435 11.0997 58.4759 11.5775 58.1819C12.092 57.9246 12.6434 57.7776 13.2682 57.7776C13.893 57.7776 14.481 57.9246 14.9588 58.1819C15.4734 58.4392 15.8409 58.8435 16.135 59.3213C16.429 59.7991 16.576 60.3504 16.576 60.9384C16.576 61.5265 16.429 62.0778 16.135 62.5556C15.8409 63.0334 15.4366 63.4009 14.9588 63.695C14.4443 63.9522 13.893 64.0993 13.2682 64.0993ZM13.2682 62.8864C13.6357 62.8864 13.9665 62.8129 14.2238 62.6291C14.5178 62.4821 14.7383 62.2248 14.9221 61.9308C15.0691 61.6368 15.1794 61.306 15.1794 60.9384C15.1794 60.5709 15.1059 60.2401 14.9221 59.9461C14.7751 59.652 14.5178 59.4315 14.2238 59.2477C13.9297 59.1007 13.599 58.9905 13.2682 58.9905C12.9006 58.9905 12.5698 59.064 12.3126 59.2477C12.0185 59.3948 11.798 59.652 11.6143 59.9461C11.4672 60.2401 11.357 60.5709 11.357 60.9384C11.357 61.306 11.4305 61.6368 11.6143 61.9308C11.7613 62.2248 12.0185 62.4454 12.3126 62.6291C12.5698 62.8129 12.9006 62.8864 13.2682 62.8864ZM25.6542 60.9384C25.6542 61.747 25.397 62.3718 24.8457 62.8496C24.2943 63.3274 23.5225 63.548 22.4934 63.6215V64.2831H21.207V63.6215C20.1779 63.548 19.4061 63.2907 18.8548 62.8496C18.3034 62.4086 18.0462 61.747 18.0462 60.9752C18.0462 60.1666 18.3034 59.5418 18.8548 59.1007C19.4061 58.6597 20.1779 58.4024 21.207 58.3289V57.7041H22.4934V58.3289C23.5225 58.4024 24.2943 58.6597 24.8457 59.1007C25.397 59.505 25.6542 60.1298 25.6542 60.9384ZM22.4934 62.4821C23.1182 62.4086 23.5593 62.2616 23.8533 62.0043C24.1473 61.747 24.2943 61.3795 24.2943 60.9017C24.2943 59.9828 23.6695 59.4683 22.4567 59.358V62.4821H22.4934ZM19.3693 60.9384C19.3693 61.8573 19.9941 62.3718 21.207 62.4821V59.358C20.5822 59.4315 20.1411 59.5785 19.8471 59.8358C19.5163 60.0931 19.3693 60.4606 19.3693 60.9384ZM27.5287 57.9246H28.9253V61.8941L31.8289 57.9246H33.152V63.989H31.7554V60.0564L28.8518 63.989H27.5287V57.9246ZM41.8259 62.8496V65.2754H40.5396V63.989H35.4675V57.9246H36.8642V62.8496H39.584V57.9246H40.9806V62.8496H41.8259ZM43.5534 57.9246H44.95V61.8941L47.8536 57.9246H49.1767V63.989H47.7801V60.0564L44.8765 63.989H43.5534V57.9246ZM55.6086 62.6659H52.7786L52.2273 63.9523H50.7939L53.5137 57.8879H54.9103L57.6301 63.9523H56.16L55.6086 62.6659ZM55.1676 61.6L54.212 59.2845L53.2564 61.6H55.1676ZM64.7236 57.9246V63.989H63.327V59.064H61.232L61.1952 60.3136C61.1585 61.159 61.085 61.8573 60.9747 62.4086C60.8645 62.9599 60.6807 63.3642 60.4234 63.6582C60.1661 63.9522 59.7986 64.0993 59.3576 64.0993C59.1738 64.0993 58.9533 64.0625 58.6592 63.989L58.7327 62.8129C58.8062 62.8497 58.8797 62.8496 58.99 62.8496C59.3208 62.8496 59.5781 62.6659 59.6883 62.2616C59.8354 61.8573 59.9089 61.2324 59.9456 60.3871L60.0191 57.9246H64.7236ZM69.9794 59.9093C70.7145 59.9093 71.3026 60.0563 71.6701 60.3871C72.0744 60.7179 72.2582 61.1957 72.2582 61.8573C72.2582 62.5556 72.0376 63.0702 71.5966 63.4377C71.1555 63.8052 70.5307 63.989 69.7589 63.989H67.0024V57.9246H68.399V59.9093H69.9794ZM69.7222 62.9599C70.0897 62.9599 70.3837 62.8864 70.5675 62.7026C70.788 62.5189 70.8615 62.2616 70.8615 61.9308C70.8615 61.306 70.4572 60.9752 69.6854 60.9752H68.4358V62.9599H69.7222ZM79.6824 57.9246V63.989H78.2858V61.4897H75.5293V63.989H74.1326V57.9246H75.5293V60.3136H78.2858V57.9246H79.6824ZM86.1144 62.6659H83.2843L82.733 63.9523H81.2996L84.0194 57.8879H85.416L88.1358 63.9523H86.6657L86.1144 62.6659ZM85.6734 61.6L84.7178 59.2845L83.7621 61.6H85.6734ZM94.2738 57.9246V63.989H92.8771V62.3718H91.5907L90.5248 63.989H89.0547L90.3043 62.1513C89.9 61.9675 89.5693 61.747 89.3487 61.3795C89.1282 61.0487 89.018 60.6444 89.018 60.1666C89.018 59.6888 89.1282 59.2845 89.3487 58.9537C89.5693 58.623 89.8633 58.3656 90.2676 58.1819C90.6719 57.9981 91.1129 57.9246 91.6642 57.9246H94.2738ZM91.701 59.064C91.2967 59.064 91.0027 59.1743 90.7822 59.358C90.5616 59.5418 90.4514 59.8358 90.4514 60.1666C90.4514 60.5341 90.5616 60.7914 90.7454 60.9752C90.9659 61.159 91.2599 61.2692 91.6275 61.2692H92.8771V59.064H91.701ZM103.058 61.5265H102.102V63.989H100.706V57.9246H102.102V60.3871H103.095L104.675 57.9246H106.145L104.161 60.8649L106.219 63.989H104.638L103.058 61.5265ZM110.592 64.0993C109.968 64.0993 109.38 63.9522 108.902 63.695C108.387 63.4377 107.983 63.0334 107.726 62.5556C107.432 62.0778 107.285 61.5265 107.285 60.9384C107.285 60.3504 107.432 59.7991 107.726 59.3213C108.02 58.8435 108.424 58.4759 108.902 58.1819C109.416 57.9246 109.968 57.7776 110.592 57.7776C111.217 57.7776 111.805 57.9246 112.283 58.1819C112.798 58.4392 113.165 58.8435 113.459 59.3213C113.753 59.7991 113.9 60.3504 113.9 60.9384C113.9 61.5265 113.753 62.0778 113.459 62.5556C113.165 63.0334 112.761 63.4009 112.283 63.695C111.769 63.9522 111.217 64.0993 110.592 64.0993ZM110.592 62.8864C110.96 62.8864 111.291 62.8129 111.548 62.6291C111.842 62.4821 112.063 62.2248 112.246 61.9308C112.393 61.6368 112.504 61.306 112.504 60.9384C112.504 60.5709 112.43 60.2401 112.246 59.9461C112.099 59.652 111.842 59.4315 111.548 59.2477C111.254 59.1007 110.923 58.9905 110.592 58.9905C110.225 58.9905 109.894 59.064 109.637 59.2477C109.343 59.3948 109.122 59.652 108.939 59.9461C108.792 60.2401 108.681 60.5709 108.681 60.9384C108.681 61.306 108.755 61.6368 108.939 61.9308C109.086 62.2248 109.343 62.4454 109.637 62.6291C109.894 62.8129 110.225 62.8864 110.592 62.8864ZM118.678 64.0993C118.054 64.0993 117.502 63.9522 116.988 63.695C116.473 63.4377 116.106 63.0701 115.812 62.5923C115.518 62.1145 115.37 61.5633 115.37 60.9752C115.37 60.3871 115.518 59.8358 115.812 59.358C116.106 58.8802 116.473 58.5127 116.988 58.2554C117.502 57.9981 118.054 57.8511 118.678 57.8511C119.193 57.8511 119.671 57.9614 120.112 58.1451C120.553 58.3289 120.884 58.5862 121.178 58.9537L120.259 59.7991C119.854 59.3213 119.34 59.1007 118.715 59.1007C118.348 59.1007 118.017 59.1743 117.723 59.358C117.429 59.505 117.208 59.7623 117.024 60.0564C116.877 60.3504 116.767 60.6812 116.767 61.0487C116.767 61.4162 116.841 61.747 117.024 62.041C117.171 62.3351 117.429 62.5556 117.723 62.7394C118.017 62.8864 118.348 62.9967 118.715 62.9967C119.34 62.9967 119.818 62.7394 120.259 62.2616L121.178 63.1069C120.884 63.4744 120.516 63.7317 120.112 63.9155C119.671 63.989 119.193 64.0993 118.678 64.0993ZM128.455 63.989V60.3504L126.654 63.3274H126.029L124.228 60.3871V63.9523H122.905V57.9246H124.081L126.36 61.7103L128.602 57.9246H129.778V63.989H128.455ZM136.798 62.8496V63.989H132.093V57.9246H136.688V59.064H133.49V60.3871H136.32V61.4897H133.49V62.8864H136.798V62.8496ZM143.377 59.064H141.429V63.989H140.032V59.064H138.084V57.9246H143.34V59.064H143.377ZM145.068 57.9246H146.464V61.8941L149.368 57.9246H150.691V63.989H149.294V60.0564L146.391 63.989H145.068V57.9246ZM155.359 61.5265H154.403V63.989H153.006V57.9246H154.403V60.3871H155.395L156.976 57.9246H158.446L156.461 60.8649L158.52 63.989H156.939L155.359 61.5265ZM163.996 62.6659H161.166L160.615 63.9523H159.181L161.901 57.8879H163.298L166.017 63.9523H164.547L163.996 62.6659ZM163.555 61.6L162.599 59.2845L161.644 61.6H163.555ZM174.618 64.0993C173.993 64.0993 173.442 63.9522 172.927 63.695C172.413 63.4377 172.045 63.0701 171.751 62.5923C171.457 62.1145 171.31 61.5633 171.31 60.9752C171.31 60.3871 171.457 59.8358 171.751 59.358C172.045 58.8802 172.413 58.5127 172.927 58.2554C173.442 57.9981 173.993 57.8511 174.618 57.8511C175.132 57.8511 175.61 57.9614 176.051 58.1451C176.492 58.3289 176.823 58.5862 177.117 58.9537L176.198 59.7991C175.794 59.3213 175.279 59.1007 174.655 59.1007C174.287 59.1007 173.956 59.1743 173.662 59.358C173.368 59.505 173.148 59.7623 172.964 60.0564C172.817 60.3504 172.707 60.6812 172.707 61.0487C172.707 61.4162 172.78 61.747 172.964 62.041C173.111 62.3351 173.368 62.5556 173.662 62.7394C173.956 62.8864 174.287 62.9967 174.655 62.9967C175.279 62.9967 175.757 62.7394 176.198 62.2616L177.117 63.1069C176.823 63.4744 176.455 63.7317 176.051 63.9155C175.61 63.989 175.132 64.0993 174.618 64.0993ZM187.077 62.8496V63.989H182.483V63.0702L184.835 60.8649C185.093 60.6444 185.24 60.4239 185.35 60.2401C185.423 60.0564 185.497 59.9093 185.497 59.7256C185.497 59.4683 185.423 59.2845 185.24 59.1743C185.093 59.0272 184.835 58.9905 184.505 58.9905C184.247 58.9905 183.99 59.0273 183.77 59.1375C183.549 59.2478 183.365 59.3948 183.218 59.5785L182.189 58.917C182.41 58.5494 182.74 58.2922 183.181 58.0716C183.586 57.8879 184.064 57.7776 184.615 57.7776C185.056 57.7776 185.46 57.8511 185.791 57.9981C186.122 58.1451 186.379 58.3657 186.563 58.6229C186.747 58.8802 186.857 59.211 186.857 59.5785C186.857 59.9093 186.783 60.2034 186.636 60.4974C186.489 60.7914 186.232 61.1222 185.828 61.4897L184.431 62.8129H187.077V62.8496ZM191.047 64.0993C190.532 64.0993 190.091 63.989 189.687 63.7317C189.283 63.4745 188.989 63.1069 188.768 62.6659C188.548 62.1881 188.437 61.6368 188.437 60.9752C188.437 60.3136 188.548 59.7623 188.768 59.2845C188.989 58.8067 189.283 58.4392 189.687 58.2187C190.091 57.9614 190.532 57.8511 191.047 57.8511C191.561 57.8511 192.002 57.9614 192.407 58.2187C192.811 58.4759 193.105 58.8434 193.326 59.2845C193.546 59.7623 193.656 60.3136 193.656 60.9752C193.656 61.6368 193.546 62.1881 193.326 62.6659C193.105 63.1437 192.811 63.5112 192.407 63.7317C192.002 63.9523 191.525 64.0993 191.047 64.0993ZM191.047 62.8864C191.414 62.8864 191.708 62.7394 191.929 62.4086C192.149 62.0778 192.26 61.6 192.26 60.9384C192.26 60.2768 192.149 59.799 191.929 59.4683C191.708 59.1375 191.414 58.9905 191.047 58.9905C190.679 58.9905 190.385 59.1375 190.201 59.4683C189.981 59.799 189.871 60.2768 189.871 60.9384C189.871 61.6 189.981 62.0778 190.201 62.4086C190.385 62.7394 190.679 62.8864 191.047 62.8864ZM197.736 64.0993C197.221 64.0993 196.78 63.989 196.376 63.7317C195.972 63.4745 195.678 63.1069 195.457 62.6659C195.237 62.1881 195.126 61.6368 195.126 60.9752C195.126 60.3136 195.237 59.7623 195.457 59.2845C195.678 58.8067 195.972 58.4392 196.376 58.2187C196.78 57.9614 197.221 57.8511 197.736 57.8511C198.251 57.8511 198.692 57.9614 199.096 58.2187C199.5 58.4759 199.794 58.8434 200.015 59.2845C200.235 59.7623 200.346 60.3136 200.346 60.9752C200.346 61.6368 200.235 62.1881 200.015 62.6659C199.794 63.1437 199.5 63.5112 199.096 63.7317C198.692 63.9523 198.251 64.0993 197.736 64.0993ZM197.736 62.8864C198.104 62.8864 198.398 62.7394 198.618 62.4086C198.839 62.0778 198.949 61.6 198.949 60.9384C198.949 60.2768 198.839 59.799 198.618 59.4683C198.398 59.1375 198.104 58.9905 197.736 58.9905C197.368 58.9905 197.074 59.1375 196.891 59.4683C196.707 59.799 196.56 60.2768 196.56 60.9384C196.56 61.6 196.67 62.0778 196.891 62.4086C197.074 62.7394 197.368 62.8864 197.736 62.8864ZM206.557 57.9246V58.8435L204.315 63.989H202.771L204.94 59.064H202.918V60.0564H201.669V57.9246H206.557ZM216.774 59.064H213.871V63.989H212.474V57.9246H216.774V59.064ZM220.744 64.0993C220.119 64.0993 219.531 63.9522 219.053 63.695C218.539 63.4377 218.134 63.0334 217.877 62.5556C217.583 62.0778 217.436 61.5265 217.436 60.9384C217.436 60.3504 217.583 59.7991 217.877 59.3213C218.171 58.8435 218.575 58.4759 219.053 58.1819C219.568 57.9246 220.119 57.7776 220.744 57.7776C221.369 57.7776 221.957 57.9246 222.435 58.1819C222.949 58.4392 223.317 58.8435 223.611 59.3213C223.905 59.7991 224.052 60.3504 224.052 60.9384C224.052 61.5265 223.905 62.0778 223.611 62.5556C223.317 63.0334 222.912 63.4009 222.435 63.695C221.957 63.9522 221.369 64.0993 220.744 64.0993ZM220.744 62.8864C221.111 62.8864 221.442 62.8129 221.7 62.6291C221.994 62.4821 222.214 62.2248 222.398 61.9308C222.545 61.6368 222.655 61.306 222.655 60.9384C222.655 60.5709 222.582 60.2401 222.398 59.9461C222.251 59.652 221.994 59.4315 221.7 59.2477C221.405 59.1007 221.075 58.9905 220.744 58.9905C220.376 58.9905 220.046 59.064 219.788 59.2477C219.494 59.3948 219.274 59.652 219.09 59.9461C218.943 60.2401 218.833 60.5709 218.833 60.9384C218.833 61.306 218.906 61.6368 219.09 61.9308C219.237 62.2248 219.494 62.4454 219.788 62.6291C220.082 62.8129 220.376 62.8864 220.744 62.8864ZM232.064 62.8496V65.2387H230.778V63.989H226.478V65.2387H225.191V62.8496H225.448C225.816 62.8496 226.073 62.5556 226.22 62.041C226.367 61.5265 226.478 60.7914 226.514 59.7991L226.588 57.8879H231.256V62.8129H232.064V62.8496ZM227.727 59.9461C227.69 60.6812 227.654 61.2692 227.543 61.747C227.433 62.2248 227.323 62.5924 227.102 62.8129H229.822V59.0272H227.727V59.9461ZM237.982 62.6659H235.151L234.6 63.9523H233.167L235.887 57.8879H237.283L240.003 63.9523H238.533L237.982 62.6659ZM237.54 61.6L236.585 59.2845L235.629 61.6H237.54Z" fill="black"/>
</svg>
