<svg width="20" height="20" viewBox="0 0 20 20" fill="none" xmlns="http://www.w3.org/2000/svg">
<g clip-path="url(#clip0)">
<path d="M19.8546 19.1463L14.8546 14.1463C14.8523 14.144 14.8493 14.1433 14.847 14.1413C16.1827 12.64 17.001 10.668 17.001 8.5C17.001 3.80566 13.1953 0 8.50098 0C3.80664 0 0.000976562 3.80566 0.000976562 8.5C0.000976562 13.1943 3.80664 17 8.50098 17C10.669 17 12.6406 16.1817 14.1423 14.8457C14.1446 14.848 14.1453 14.851 14.1473 14.8533L19.1473 19.8533C19.245 19.9513 19.373 20 19.501 20C19.629 20 19.757 19.9513 19.8546 19.8537C20.0496 19.6583 20.0496 19.3417 19.8546 19.1463ZM8.50098 16C4.36562 16 1.00098 12.6354 1.00098 8.5C1.00098 4.36465 4.36562 1 8.50098 1C12.6363 1 16.001 4.36465 16.001 8.5C16.001 12.6354 12.6363 16 8.50098 16Z" fill="white"/>
</g>
<defs>
<clipPath id="clip0">
<rect width="20" height="20" fill="white"/>
</clipPath>
</defs>
</svg>
