<svg width="20" height="20" viewBox="0 0 20 20" fill="none" xmlns="http://www.w3.org/2000/svg">
<path d="M10 0C6.68633 0 4 3.35801 4 7.5C4 11.642 6.68633 15 10 15C13.3137 15 16 11.642 16 7.5C16 3.35801 13.3137 0 10 0ZM10 14C7.24301 14 5 11.084 5 7.5C5 3.91602 7.24301 1 10 1C12.757 1 15 3.91602 15 7.5C15 11.084 12.757 14 10 14Z" fill="white"/>
<path d="M14.3677 14.1309C14.0993 14.3919 13.8137 14.6265 13.5153 14.8379C14.468 15.2805 15.3036 15.6485 16.0173 15.9602C18.6656 17.1159 19 17.3445 19 17.9995C19 18.4525 18.5539 18.9995 18 18.9995H2C1.44602 18.9995 1 18.4525 1 17.9995C1 17.3445 1.33434 17.1159 3.98234 15.9602C4.69633 15.6485 5.53199 15.2805 6.48434 14.8379C6.18602 14.6265 5.90035 14.3918 5.63199 14.1309C1.46867 16.0362 0 16.2915 0 17.9995C0 18.9995 0.895352 19.9995 2 19.9995H18C19.1046 19.9995 20 18.9995 20 17.9995C20 16.2915 18.5313 16.0362 14.3677 14.1309Z" fill="white"/>
</svg>
